<svg width="1512" height="982" viewBox="0 0 1512 982" fill="none" xmlns="http://www.w3.org/2000/svg">
<path d="M920.248 831.429C919.365 827.659 921.706 823.886 925.476 823.003L1176.57 764.193C1180.34 763.31 1184.11 765.65 1185 769.421L1197.04 820.833C1197.8 824.071 1196.16 827.407 1193.13 828.789C1106.08 868.545 1037.2 885.262 939.314 888.244C935.994 888.345 933.049 886.084 932.292 882.85L920.248 831.429Z" fill="#D8C8B6"/>
<path d="M1065.31 823.86C1260.7 778.097 1415.74 725.542 1382.02 572.106C1381.65 570.425 1379.96 569.318 1378.28 569.711L672.034 735.125C670.359 735.518 669.332 737.262 669.748 738.932C707.677 891.38 869.925 869.623 1065.31 823.86Z" fill="#EDDCC8"/>
</svg>
