<svg width="1512" height="982" viewBox="0 0 1512 982" fill="none" xmlns="http://www.w3.org/2000/svg">
<path d="M540.004 552.187C540.004 552.187 531.932 583.334 508.025 596.583C484.118 609.832 453.429 600.165 453.429 600.165C453.429 600.165 461.5 569.018 485.407 555.769C509.314 542.52 540.004 552.187 540.004 552.187Z" fill="#D6D94B"/>
<path fill-rule="evenodd" clip-rule="evenodd" d="M550.692 667.268C545.541 685.223 528.201 696.378 510.236 694.323C526.558 702.103 535.349 720.754 530.199 738.709C525.048 756.664 507.707 767.819 489.743 765.764C506.065 773.544 514.856 792.196 509.705 810.15C503.968 830.152 483.101 841.716 463.1 835.978C445.145 830.828 433.99 813.487 436.044 795.523C428.264 811.845 409.613 820.635 391.658 815.485C373.704 810.335 362.548 792.994 364.603 775.03C356.823 791.351 338.172 800.142 320.217 794.992C300.215 789.254 288.651 768.388 294.389 748.386C299.539 730.431 316.88 719.276 334.844 721.331C318.523 713.551 309.732 694.899 314.882 676.945C320.033 658.99 337.374 647.835 355.337 649.889C339.016 642.109 330.225 623.458 335.375 605.503C341.113 585.501 361.979 573.938 381.981 579.675C399.936 584.826 411.091 602.167 409.036 620.13C416.816 603.809 435.468 595.018 453.423 600.169C471.377 605.319 482.533 622.66 480.478 640.623C488.258 624.302 506.909 615.511 524.864 620.662C544.866 626.399 556.429 647.265 550.692 667.268ZM405.589 632.147C398.696 646.608 383.27 655.157 367.354 653.336C381.815 660.229 390.364 675.656 388.543 691.572C395.436 677.111 410.863 668.562 426.779 670.383C412.318 663.49 403.769 648.063 405.589 632.147ZM438.795 673.829C454.711 675.65 470.138 667.101 477.031 652.64C475.21 668.556 483.76 683.983 498.22 690.876C482.305 689.055 466.877 697.605 459.985 712.065C461.805 696.15 453.256 680.722 438.795 673.829ZM439.491 783.507C446.384 769.046 461.811 760.497 477.727 762.317C463.266 755.424 454.717 739.997 456.538 724.081C449.645 738.542 434.218 747.092 418.302 745.271C432.763 752.164 441.312 767.591 439.491 783.507ZM385.096 703.588C383.276 719.504 391.825 734.931 406.286 741.824C390.37 740.003 374.943 748.553 368.05 763.014C369.871 747.098 361.322 731.671 346.861 724.778C362.777 726.598 378.203 718.049 385.096 703.588Z" fill="#5D5FEF"/>
</svg>
