<svg width="1512" height="982" viewBox="0 0 1512 982" fill="none" xmlns="http://www.w3.org/2000/svg">
<rect x="426" y="166.641" width="96.9001" height="96.9001" rx="5.10105" transform="rotate(-19.6854 426 166.641)" fill="#4E9AFF"/>
<path d="M476.127 242.536C478.827 243.33 481.583 243.193 484.052 242.31C487.767 240.981 490.823 237.964 492.035 233.914C492.04 233.905 492.044 233.896 492.047 233.886C492.05 233.876 492.053 233.867 492.056 233.857L492.06 233.843C492.063 233.833 492.065 233.823 492.068 233.814L496.297 219.311L508.766 227.839C508.779 227.849 508.791 227.856 508.803 227.863C508.809 227.867 508.814 227.871 508.82 227.875C514.675 231.841 522.655 230.321 526.631 224.475C530.612 218.627 529.104 210.614 523.282 206.589L523.269 206.579C523.258 206.57 523.249 206.563 523.237 206.558L510.783 198.016L522.705 188.78C528.305 184.442 529.333 176.33 524.994 170.706C520.655 165.082 512.568 164.031 506.959 168.366L495.032 177.584L489.929 163.339C487.529 156.651 480.154 153.148 473.487 155.533C466.819 157.918 463.34 165.305 465.73 172.003L470.811 186.242L455.742 186.683C455.737 186.684 455.73 186.686 455.723 186.686C455.714 186.687 455.704 186.687 455.696 186.686C448.631 186.912 443.07 192.846 443.285 199.932C443.499 207.017 449.407 212.621 456.465 212.451C456.471 212.451 456.477 212.451 456.483 212.451L456.508 212.452L456.52 212.452L471.588 212.032L467.379 226.535C467.378 226.542 467.376 226.549 467.374 226.557C467.371 226.565 467.369 226.572 467.368 226.58C465.415 233.386 469.34 240.541 476.127 242.536Z" fill="#2F80ED"/>
</svg>
