<svg width="1512" height="982" viewBox="0 0 1512 982" fill="none" xmlns="http://www.w3.org/2000/svg">
<path d="M1219.66 206.389C1221.99 203.936 1226.12 205.134 1226.77 208.455L1230.94 229.6C1231.11 230.447 1231.54 231.222 1232.16 231.817L1247.79 246.66C1250.24 248.991 1249.04 253.12 1245.72 253.775L1224.58 257.944C1223.73 258.111 1222.96 258.537 1222.36 259.164L1207.52 274.789C1205.19 277.243 1201.06 276.045 1200.4 272.724L1196.23 251.579C1196.07 250.732 1195.64 249.957 1195.02 249.362L1179.39 234.519C1176.94 232.188 1178.13 228.059 1181.45 227.404L1202.6 223.235C1203.45 223.068 1204.22 222.642 1204.82 222.016L1219.66 206.389Z" fill="#FFBEF9"/>
<path d="M604 739L609.325 758.226L625.013 745.78L617.94 764.442L638 763.53L621.232 774.5L638 785.47L617.94 784.558L625.013 803.22L609.325 790.774L604 810L598.675 790.774L582.987 803.22L590.06 784.558L570 785.47L586.769 774.5L570 763.53L590.06 764.442L582.987 745.78L598.675 758.226L604 739Z" fill="#BB98DD"/>
</svg>
