<svg width="1512" height="982" viewBox="0 0 1512 982" fill="none" xmlns="http://www.w3.org/2000/svg">
<path d="M261.972 610.987C247.621 617.595 231.242 618.256 216.442 612.823C201.641 607.391 189.631 596.312 183.052 582.022C172.863 559.891 175.508 538.57 178.73 512.592C181.236 492.387 184.091 469.365 181.53 440.953C181.38 439.293 180.691 434.463 180.691 434.463C180.691 434.463 180.699 434.471 180.712 434.486C180.709 434.466 180.708 434.455 180.708 434.455C180.708 434.455 183.929 438.119 185.093 439.313C205.014 459.732 224.361 472.533 241.342 483.766C263.173 498.21 281.092 510.064 291.281 532.195C297.859 546.484 298.467 562.813 292.971 577.589C287.513 592.262 276.223 604.426 261.972 610.987Z" fill="#56CCF2"/>
</svg>
