<svg width="1512" height="982" viewBox="0 0 1512 982" fill="none" xmlns="http://www.w3.org/2000/svg">
<circle cx="933.158" cy="578.889" r="116.5" transform="rotate(5.51525 933.158 578.889)" fill="#FF9292"/>
<path d="M1007.81 410.791C1007.81 410.791 1005.92 437.563 988.327 452.061C970.731 466.559 944.091 463.291 944.091 463.291C944.091 463.291 945.981 436.518 963.577 422.02C981.174 407.523 1007.81 410.791 1007.81 410.791Z" fill="#9AD94B"/>
<path d="M944.082 463.29C944.082 463.29 917.31 461.4 902.812 443.804C888.314 426.207 891.582 399.567 891.582 399.567C891.582 399.567 918.355 401.457 932.853 419.054C947.35 436.65 944.082 463.29 944.082 463.29Z" fill="#9AD94B"/>
<path d="M922.458 694.898C953.081 697.855 983.629 688.473 1007.38 668.817C1031.14 649.161 1046.15 620.84 1049.12 590.086C1052.09 559.332 1042.77 528.662 1023.22 504.824C1003.66 480.986 975.475 465.933 944.852 462.976L933.655 578.937L922.458 694.898Z" fill="#F36969"/>
</svg>
