<svg width="1368" height="912" viewBox="0 0 1368 912" fill="none" xmlns="http://www.w3.org/2000/svg">
<g clip-path="url(#clip0_103_2)">
<circle cx="910.5" cy="190.5" r="110.5" fill="#FB8B4C"/>
<rect x="830.875" y="86.3864" width="5.525" height="48.2961" rx="2.7625" transform="rotate(-45 830.875 86.3864)" fill="#6A5B52"/>
<ellipse cx="889.117" cy="90.6091" rx="29.1721" ry="32.4134" transform="rotate(20.6886 889.117 90.6091)" fill="#D6D94B"/>
<circle cx="999.062" cy="196.188" r="5.6875" fill="#E15C11"/>
<ellipse cx="982.812" cy="179.125" rx="5.6875" ry="4.875" fill="#E15C11"/>
<circle cx="960.062" cy="256.312" r="5.6875" fill="#E15C11"/>
<ellipse cx="586.627" cy="394.62" rx="81.7802" ry="103.656" transform="rotate(-49.9912 586.627 394.62)" fill="#D6D94B"/>
<ellipse cx="644.376" cy="452.439" rx="117.416" ry="104.679" transform="rotate(-49.9912 644.376 452.439)" fill="#D6D94B"/>
<path d="M490.66 316.125C490.167 315.866 490.037 315.219 490.392 314.789L498.173 305.378C498.496 304.988 499.081 304.951 499.45 305.298L525.191 329.511C525.528 329.828 525.561 330.353 525.267 330.709L521.552 335.202C521.238 335.581 520.674 335.628 520.302 335.306L509.747 326.17C509.696 326.126 509.64 326.088 509.581 326.057L490.66 316.125Z" fill="#6A5B52"/>
<ellipse cx="729.792" cy="419.48" rx="9.91047" ry="9.0846" transform="rotate(-19.9912 729.792 419.48)" fill="#A1A500"/>
<circle cx="701.283" cy="399.092" r="9.91047" transform="rotate(-19.9912 701.283 399.092)" fill="#A1A500"/>
<circle cx="699.883" cy="482.211" r="9.91047" transform="rotate(-19.9912 699.883 482.211)" fill="#A1A500"/>
<ellipse cx="1180.22" cy="404.751" rx="133.882" ry="112.07" transform="rotate(-33.0193 1180.22 404.751)" fill="#FFE665"/>
<ellipse cx="1083.73" cy="467.461" rx="33.8467" ry="27.8295" transform="rotate(-33.0193 1083.73 467.461)" fill="#FFE665"/>
<ellipse cx="1276.71" cy="342.043" rx="33.8467" ry="27.8295" transform="rotate(-33.0193 1276.71 342.043)" fill="#FFE665"/>
<circle cx="1190.54" cy="313.434" r="8.59202" transform="rotate(-38.3309 1190.54 313.434)" fill="#E4C72A"/>
<circle cx="1220.71" cy="316.962" r="8.59202" transform="rotate(-38.3309 1220.71 316.962)" fill="#E4C72A"/>
<circle cx="1198.38" cy="351.051" r="8.59202" transform="rotate(-38.3309 1198.38 351.051)" fill="#E4C72A"/>
<path d="M195.387 570.442C181.035 577.049 164.657 577.71 149.856 572.278C135.056 566.846 123.046 555.766 116.467 541.477C106.278 519.346 108.922 498.025 112.144 472.047C114.651 451.842 117.506 428.819 114.945 400.408C114.795 398.747 114.106 393.918 114.106 393.918C114.106 393.918 114.113 393.925 114.127 393.941C114.124 393.921 114.122 393.91 114.122 393.91C114.122 393.91 117.344 397.574 118.508 398.767C138.428 419.187 157.776 431.987 174.757 443.221C196.588 457.664 214.507 469.518 224.695 491.649C231.274 505.939 231.882 522.268 226.386 537.044C220.928 551.717 209.638 563.881 195.387 570.442Z" fill="#56CCF2"/>
<path d="M150.008 54.434C124.105 -10.2638 20.533 50.3814 20.533 50.3814C20.533 50.3814 42.3299 127.85 118.524 152.35C194.718 176.849 257.58 126.602 257.58 126.602C257.58 126.602 208.764 16.9577 150.008 54.434Z" fill="#F596AF"/>
<path d="M150.008 54.434C124.105 -10.2638 20.533 50.3814 20.533 50.3814C20.533 50.3814 65.7189 64.9105 141.913 89.41C218.107 113.91 257.58 126.602 257.58 126.602C257.58 126.602 208.764 16.9577 150.008 54.434Z" fill="#FFBECF"/>
<circle cx="872.158" cy="546.889" r="116.5" transform="rotate(5.51525 872.158 546.889)" fill="#FF9292"/>
<path d="M946.813 378.791C946.813 378.791 944.924 405.563 927.327 420.061C909.731 434.559 883.091 431.291 883.091 431.291C883.091 431.291 884.981 404.518 902.577 390.02C920.174 375.523 946.813 378.791 946.813 378.791Z" fill="#9AD94B"/>
<path d="M883.082 431.29C883.082 431.29 856.31 429.4 841.812 411.804C827.314 394.207 830.582 367.567 830.582 367.567C830.582 367.567 857.355 369.457 871.853 387.054C886.35 404.65 883.082 431.29 883.082 431.29Z" fill="#9AD94B"/>
<path d="M861.458 662.898C892.081 665.855 922.629 656.473 946.382 636.817C970.136 617.161 985.149 588.84 988.118 558.086C991.088 527.332 981.771 496.662 962.218 472.824C942.664 448.986 914.475 433.933 883.852 430.976L872.655 546.937L861.458 662.898Z" fill="#F36969"/>
<path d="M479.004 520.187C479.004 520.187 470.932 551.334 447.025 564.583C423.118 577.832 392.429 568.165 392.429 568.165C392.429 568.165 400.5 537.018 424.407 523.769C448.314 510.52 479.004 520.187 479.004 520.187Z" fill="#D6D94B"/>
<path fill-rule="evenodd" clip-rule="evenodd" d="M489.692 635.268C484.541 653.223 467.201 664.378 449.236 662.323C465.558 670.103 474.349 688.754 469.199 706.709C464.048 724.664 446.707 735.819 428.743 733.764C445.065 741.544 453.856 760.196 448.705 778.15C442.968 798.152 422.101 809.716 402.1 803.978C384.145 798.828 372.99 781.487 375.044 763.523C367.264 779.845 348.613 788.635 330.658 783.485C312.704 778.335 301.548 760.994 303.603 743.03C295.823 759.351 277.172 768.142 259.217 762.992C239.215 757.254 227.651 736.388 233.389 716.386C238.539 698.431 255.88 687.276 273.844 689.331C257.523 681.551 248.732 662.899 253.882 644.945C259.032 626.99 276.374 615.835 294.337 617.889C278.016 610.109 269.225 591.458 274.375 573.503C280.113 553.501 300.979 541.938 320.981 547.675C338.936 552.826 350.091 570.167 348.036 588.13C355.816 571.809 374.468 563.018 392.423 568.169C410.377 573.319 421.533 590.66 419.478 608.623C427.258 592.302 445.909 583.511 463.864 588.662C483.866 594.399 495.429 615.265 489.692 635.268ZM344.589 600.147C337.696 614.608 322.27 623.157 306.354 621.336C320.815 628.229 329.364 643.656 327.543 659.572C334.436 645.111 349.863 636.562 365.779 638.383C351.318 631.49 342.769 616.063 344.589 600.147ZM377.795 641.829C393.711 643.65 409.138 635.101 416.031 620.64C414.21 636.556 422.76 651.983 437.22 658.876C421.305 657.055 405.877 665.605 398.984 680.065C400.805 664.15 392.256 648.722 377.795 641.829ZM378.491 751.507C385.384 737.046 400.811 728.497 416.727 730.317C402.266 723.424 393.717 707.997 395.538 692.081C388.645 706.542 373.218 715.092 357.302 713.271C371.763 720.164 380.312 735.591 378.491 751.507ZM324.096 671.588C322.276 687.504 330.825 702.931 345.286 709.824C329.37 708.003 313.943 716.553 307.05 731.014C308.87 715.098 300.322 699.671 285.861 692.778C301.777 694.598 317.203 686.049 324.096 671.588Z" fill="#5D5FEF"/>
<path d="M1158.66 174.389C1160.99 171.936 1165.12 173.134 1165.77 176.455L1169.94 197.6C1170.11 198.447 1170.54 199.222 1171.16 199.817L1186.79 214.66C1189.24 216.991 1188.04 221.12 1184.72 221.775L1163.58 225.944C1162.73 226.111 1161.96 226.537 1161.36 227.164L1146.52 242.789C1144.19 245.243 1140.06 244.045 1139.4 240.724L1135.23 219.579C1135.07 218.732 1134.64 217.957 1134.02 217.362L1118.39 202.519C1115.94 200.188 1117.13 196.059 1120.45 195.404L1141.6 191.235C1142.45 191.068 1143.22 190.642 1143.82 190.016L1158.66 174.389Z" fill="#FFBEF9"/>
<path d="M157.219 235.398C157.792 232.063 161.89 230.762 164.281 233.157L179.507 248.411C180.117 249.022 180.902 249.429 181.753 249.575L202.995 253.219C206.331 253.792 207.631 257.89 205.236 260.281L189.982 275.506C189.371 276.117 188.964 276.902 188.818 277.753L185.174 298.995C184.602 302.331 180.504 303.631 178.113 301.236L162.887 285.982C162.276 285.371 161.492 284.964 160.64 284.818L139.398 281.174C136.063 280.602 134.762 276.504 137.157 274.113L152.411 258.887C153.022 258.276 153.429 257.492 153.575 256.64L157.219 235.398Z" fill="#FB8B4C"/>
<path d="M859.248 799.429C858.365 795.659 860.706 791.886 864.476 791.003L1115.57 732.193C1119.34 731.31 1123.11 733.65 1124 737.421L1136.04 788.833C1136.8 792.071 1135.16 795.407 1132.13 796.789C1045.08 836.545 976.201 853.262 878.314 856.244C874.994 856.345 872.049 854.084 871.292 850.85L859.248 799.429Z" fill="#D8C8B6"/>
<path d="M1004.31 791.86C1199.7 746.097 1354.74 693.542 1321.02 540.106C1320.65 538.425 1318.96 537.318 1317.28 537.711L611.034 703.125C609.359 703.518 608.332 705.262 608.748 706.932C646.677 859.38 808.925 837.623 1004.31 791.86Z" fill="#EDDCC8"/>
<rect x="365" y="134.641" width="96.9001" height="96.9001" rx="5.10105" transform="rotate(-19.6854 365 134.641)" fill="#4E9AFF"/>
<path d="M415.127 210.536C417.827 211.33 420.583 211.193 423.052 210.31C426.767 208.981 429.823 205.964 431.035 201.914C431.04 201.905 431.044 201.896 431.047 201.886C431.05 201.876 431.053 201.867 431.056 201.857L431.06 201.843C431.063 201.833 431.065 201.823 431.068 201.814L435.297 187.311L447.766 195.839C447.779 195.849 447.791 195.856 447.803 195.863C447.809 195.867 447.814 195.871 447.82 195.875C453.675 199.841 461.655 198.321 465.631 192.475C469.612 186.627 468.104 178.614 462.282 174.589L462.269 174.579C462.257 174.57 462.249 174.563 462.237 174.558L449.783 166.016L461.705 156.78C467.305 152.442 468.333 144.33 463.994 138.706C459.655 133.082 451.568 132.031 445.959 136.366L434.032 145.584L428.929 131.339C426.529 124.651 419.154 121.148 412.487 123.533C405.819 125.918 402.34 133.305 404.73 140.003L409.811 154.242L394.742 154.683C394.737 154.684 394.73 154.686 394.723 154.686C394.714 154.687 394.704 154.687 394.696 154.686C387.631 154.912 382.07 160.846 382.285 167.932C382.499 175.017 388.407 180.621 395.465 180.451C395.471 180.451 395.477 180.451 395.483 180.451L395.508 180.452L395.52 180.452L410.588 180.032L406.379 194.535C406.378 194.542 406.376 194.549 406.374 194.557C406.371 194.565 406.369 194.572 406.368 194.58C404.415 201.386 408.34 208.541 415.127 210.536Z" fill="#2F80ED"/>
<rect x="271" y="317.501" width="96.9001" height="96.9001" rx="5.10105" transform="rotate(-1.47885 271 317.501)" fill="#4E9AFF"/>
<path d="M294.905 405.258C297.222 406.856 299.882 407.587 302.503 407.519C306.448 407.418 310.293 405.506 312.711 402.038C312.718 402.031 312.724 402.023 312.73 402.015C312.736 402.007 312.742 401.999 312.747 401.99L312.756 401.978C312.762 401.969 312.767 401.961 312.773 401.953L321.322 389.498L330.502 401.495C330.511 401.508 330.52 401.518 330.529 401.529C330.533 401.534 330.537 401.54 330.542 401.546C334.864 407.142 342.92 408.191 348.523 403.88C354.132 399.569 355.203 391.486 350.93 385.844L350.921 385.83C350.913 385.818 350.907 385.809 350.897 385.8L341.736 373.795L355.946 368.746C362.621 366.375 366.133 358.99 363.768 352.292C361.404 345.594 354.049 342.069 347.367 344.434L333.157 349.464L332.76 334.338C332.57 327.235 326.659 321.603 319.58 321.786C312.501 321.968 306.889 327.898 307.066 335.007L307.443 350.121L292.992 345.832C292.986 345.832 292.979 345.831 292.972 345.829C292.963 345.827 292.954 345.823 292.946 345.82C286.165 343.828 279.028 347.727 277.018 354.525C275.008 361.323 278.87 368.492 285.627 370.536C285.633 370.538 285.639 370.54 285.644 370.542L285.668 370.55L285.679 370.554L300.124 374.863L291.594 387.324C291.591 387.331 291.587 387.337 291.582 387.344C291.577 387.351 291.573 387.357 291.57 387.364C287.588 393.219 289.081 401.242 294.905 405.258Z" fill="#2F80ED"/>
</g>
<defs>
<clipPath id="clip0_103_2">
<rect width="1368" height="912" fill="white"/>
</clipPath>
</defs>
</svg>
