<svg width="1512" height="982" viewBox="0 0 1512 982" fill="none" xmlns="http://www.w3.org/2000/svg">
<rect x="335" y="385.501" width="96.9001" height="96.9001" rx="5.10105" transform="rotate(-1.47885 335 385.501)" fill="#4E9AFF"/>
<path d="M358.905 473.258C361.222 474.856 363.882 475.587 366.503 475.519C370.448 475.418 374.293 473.506 376.711 470.038C376.718 470.031 376.724 470.023 376.73 470.015C376.736 470.007 376.742 469.999 376.747 469.99L376.756 469.978C376.762 469.969 376.767 469.961 376.773 469.953L385.322 457.498L394.502 469.495C394.511 469.508 394.52 469.518 394.529 469.529C394.533 469.534 394.537 469.54 394.542 469.546C398.864 475.142 406.92 476.191 412.523 471.88C418.132 467.569 419.203 459.486 414.93 453.844L414.921 453.83C414.913 453.818 414.907 453.809 414.897 453.8L405.736 441.795L419.946 436.746C426.621 434.375 430.133 426.99 427.768 420.292C425.404 413.594 418.049 410.069 411.367 412.434L397.157 417.464L396.76 402.338C396.57 395.235 390.659 389.603 383.58 389.786C376.501 389.968 370.889 395.898 371.066 403.007L371.443 418.121L356.992 413.832C356.986 413.832 356.979 413.831 356.972 413.829C356.963 413.827 356.954 413.823 356.946 413.82C350.165 411.828 343.028 415.727 341.018 422.525C339.008 429.323 342.87 436.492 349.627 438.536C349.633 438.538 349.639 438.54 349.644 438.542L349.668 438.55L349.679 438.554L364.124 442.863L355.594 455.324C355.591 455.331 355.587 455.337 355.582 455.344C355.577 455.351 355.573 455.357 355.57 455.364C351.588 461.219 353.081 469.242 358.905 473.258Z" fill="#2F80ED"/>
</svg>
