<svg width="1512" height="982" viewBox="0 0 1512 982" fill="none" xmlns="http://www.w3.org/2000/svg">
<ellipse cx="647.627" cy="426.62" rx="81.7802" ry="103.656" transform="rotate(-49.9912 647.627 426.62)" fill="#D6D94B"/>
<ellipse cx="705.376" cy="484.439" rx="117.416" ry="104.679" transform="rotate(-49.9912 705.376 484.439)" fill="#D6D94B"/>
<path d="M551.66 348.125C551.167 347.866 551.037 347.219 551.392 346.789L559.173 337.378C559.496 336.988 560.081 336.951 560.45 337.298L586.191 361.511C586.528 361.828 586.561 362.353 586.267 362.709L582.552 367.202C582.238 367.581 581.674 367.628 581.302 367.306L570.747 358.17C570.696 358.126 570.64 358.088 570.581 358.057L551.66 348.125Z" fill="#6A5B52"/>
<ellipse cx="790.792" cy="451.48" rx="9.91047" ry="9.0846" transform="rotate(-19.9912 790.792 451.48)" fill="#A1A500"/>
<circle cx="762.283" cy="431.092" r="9.91047" transform="rotate(-19.9912 762.283 431.092)" fill="#A1A500"/>
<circle cx="760.883" cy="514.211" r="9.91047" transform="rotate(-19.9912 760.883 514.211)" fill="#A1A500"/>
</svg>
