<svg width="1512" height="982" viewBox="0 0 1512 982" fill="none" xmlns="http://www.w3.org/2000/svg">
<path d="M343.219 259.398C343.792 256.063 347.89 254.762 350.281 257.157L365.507 272.411C366.117 273.022 366.902 273.429 367.753 273.575L388.995 277.219C392.331 277.792 393.631 281.89 391.236 284.281L375.982 299.506C375.371 300.117 374.964 300.902 374.818 301.753L371.174 322.995C370.602 326.331 366.504 327.631 364.113 325.236L348.887 309.982C348.276 309.371 347.492 308.964 346.64 308.818L325.398 305.174C322.063 304.602 320.762 300.504 323.157 298.113L338.411 282.887C339.022 282.276 339.429 281.492 339.575 280.64L343.219 259.398Z" fill="#FB8B4C"/>
<path d="M733 205L738.325 224.226L754.013 211.78L746.94 230.442L767 229.53L750.232 240.5L767 251.47L746.94 250.558L754.013 269.22L738.325 256.774L733 276L727.675 256.774L711.987 269.22L719.06 250.558L699 251.47L715.769 240.5L699 229.53L719.06 230.442L711.987 211.78L727.675 224.226L733 205Z" fill="#FFD058"/>
</svg>
